<?xml version="1.0" encoding="UTF-8"?>
<svg xmlns="http://www.w3.org/2000/svg" xmlns:xlink="http://www.w3.org/1999/xlink" width="25px" height="25px" viewBox="0 0 25 25" version="1.1">
<g id="surface1">
<path style=" stroke:none;fill-rule:nonzero;fill:rgb(0%,0%,0%);fill-opacity:1;" d="M 12.5 2.253906 C 15.835938 2.253906 16.234375 2.265625 17.550781 2.324219 C 20.941406 2.480469 22.523438 4.085938 22.675781 7.449219 C 22.738281 8.769531 22.746094 9.164062 22.746094 12.5 C 22.746094 15.839844 22.734375 16.234375 22.675781 17.550781 C 22.519531 20.910156 20.941406 22.523438 17.550781 22.675781 C 16.234375 22.738281 15.839844 22.75 12.5 22.75 C 9.164062 22.75 8.765625 22.738281 7.449219 22.675781 C 4.054688 22.519531 2.480469 20.90625 2.324219 17.550781 C 2.265625 16.234375 2.253906 15.839844 2.253906 12.5 C 2.253906 9.164062 2.265625 8.769531 2.324219 7.449219 C 2.480469 4.085938 4.058594 2.480469 7.449219 2.324219 C 8.769531 2.265625 9.164062 2.253906 12.5 2.253906 Z M 12.5 0 C 9.105469 0 8.679688 0.015625 7.347656 0.0742188 C 2.808594 0.285156 0.285156 2.800781 0.0742188 7.347656 C 0.015625 8.679688 0 9.105469 0 12.5 C 0 15.894531 0.015625 16.320312 0.0742188 17.652344 C 0.285156 22.195312 2.800781 24.714844 7.347656 24.925781 C 8.679688 24.984375 9.105469 25 12.5 25 C 15.894531 25 16.320312 24.984375 17.652344 24.925781 C 22.191406 24.714844 24.71875 22.199219 24.925781 17.652344 C 24.984375 16.320312 25 15.894531 25 12.5 C 25 9.105469 24.984375 8.679688 24.925781 7.347656 C 24.722656 2.8125 22.199219 0.285156 17.65625 0.0742188 C 16.320312 0.015625 15.894531 0 12.5 0 Z M 12.5 6.082031 C 8.957031 6.082031 6.082031 8.957031 6.082031 12.5 C 6.082031 16.042969 8.957031 18.917969 12.5 18.917969 C 16.042969 18.917969 18.917969 16.046875 18.917969 12.5 C 18.917969 8.957031 16.042969 6.082031 12.5 6.082031 Z M 12.5 16.667969 C 10.199219 16.667969 8.332031 14.800781 8.332031 12.5 C 8.332031 10.199219 10.199219 8.332031 12.5 8.332031 C 14.800781 8.332031 16.667969 10.199219 16.667969 12.5 C 16.667969 14.800781 14.800781 16.667969 12.5 16.667969 Z M 19.171875 4.328125 C 18.34375 4.328125 17.671875 5 17.671875 5.828125 C 17.671875 6.65625 18.34375 7.328125 19.171875 7.328125 C 20 7.328125 20.671875 6.65625 20.671875 5.828125 C 20.671875 5 20 4.328125 19.171875 4.328125 Z M 19.171875 4.328125 "/>
</g>
</svg>
