<?xml version="1.0" encoding="UTF-8"?>
<svg xmlns="http://www.w3.org/2000/svg" xmlns:xlink="http://www.w3.org/1999/xlink" width="25px" height="25px" viewBox="0 0 25 25" version="1.1">
<g id="surface1">
<path style=" stroke:none;fill-rule:nonzero;fill:rgb(0%,0%,0%);fill-opacity:1;" d="M 12.5 24.480469 C 11.457031 24.480469 12.691406 22.835938 7.554688 20.277344 C 7.273438 20.136719 7 19.980469 6.738281 19.808594 C 4.183594 18.144531 2.605469 15.105469 2.605469 11.832031 C 2.605469 6.449219 7.035156 2.082031 12.5 2.082031 C 17.964844 2.082031 22.394531 6.449219 22.394531 11.832031 C 22.394531 15.4375 20.476562 18.765625 17.453125 20.273438 C 12.3125 22.832031 13.542969 24.480469 12.5 24.480469 Z M 12.5 15.738281 C 14.699219 15.738281 16.457031 13.996094 16.457031 11.878906 C 16.457031 9.761719 14.699219 8.019531 12.5 8.019531 C 10.300781 8.019531 8.542969 9.761719 8.542969 11.878906 C 8.542969 13.996094 10.300781 15.738281 12.5 15.738281 Z M 12.5 15.738281 "/>
</g>
</svg>
