<?xml version="1.0" encoding="UTF-8"?>
<svg xmlns="http://www.w3.org/2000/svg" xmlns:xlink="http://www.w3.org/1999/xlink" width="25px" height="25px" viewBox="0 0 25 25" version="1.1">
<g id="surface1">
<path style=" stroke:none;fill-rule:evenodd;fill:rgb(0%,0%,0%);fill-opacity:1;" d="M 2.367188 6.628906 C 2.082031 7.1875 2.082031 7.917969 2.082031 9.375 L 2.082031 15.625 C 2.082031 17.082031 2.082031 17.8125 2.367188 18.371094 C 2.617188 18.859375 3.015625 19.257812 3.503906 19.507812 C 4.0625 19.792969 4.792969 19.792969 6.25 19.792969 L 18.75 19.792969 C 20.207031 19.792969 20.9375 19.792969 21.496094 19.507812 C 21.984375 19.257812 22.382812 18.859375 22.632812 18.371094 C 22.917969 17.8125 22.917969 17.082031 22.917969 15.625 L 22.917969 9.375 C 22.917969 7.917969 22.917969 7.1875 22.632812 6.628906 C 22.382812 6.140625 21.984375 5.742188 21.496094 5.492188 C 20.9375 5.207031 20.207031 5.207031 18.75 5.207031 L 6.25 5.207031 C 4.792969 5.207031 4.0625 5.207031 3.503906 5.492188 C 3.015625 5.742188 2.617188 6.140625 2.367188 6.628906 Z M 4.839844 7.292969 L 20.160156 7.292969 C 20.390625 7.292969 20.589844 7.441406 20.660156 7.660156 C 20.726562 7.882812 20.640625 8.117188 20.449219 8.246094 L 13.078125 13.175781 C 12.730469 13.410156 12.269531 13.410156 11.921875 13.175781 L 4.550781 8.246094 C 4.359375 8.117188 4.273438 7.882812 4.339844 7.660156 C 4.410156 7.441406 4.609375 7.292969 4.839844 7.292969 Z M 4.839844 7.292969 "/>
</g>
</svg>
