<?xml version="1.0" encoding="UTF-8"?>
<svg xmlns="http://www.w3.org/2000/svg" xmlns:xlink="http://www.w3.org/1999/xlink" width="25px" height="25px" viewBox="0 0 25 25" version="1.1">
<g id="surface1">
<path style=" stroke:none;fill-rule:nonzero;fill:rgb(0%,0%,0%);fill-opacity:1;" d="M 9.375 16.667969 C 2.929688 10.222656 3.238281 5.347656 6.1875 3.136719 L 6.839844 2.652344 C 7.175781 2.402344 7.601562 2.300781 8.011719 2.371094 C 8.425781 2.441406 8.789062 2.675781 9.027344 3.019531 L 10.671875 5.386719 C 11.128906 6.042969 11.015625 6.933594 10.414062 7.457031 L 8.828125 8.828125 C 8.433594 9.167969 8.238281 9.691406 8.417969 10.183594 C 8.746094 11.097656 9.546875 12.714844 11.433594 14.605469 C 13.324219 16.496094 14.941406 17.292969 15.859375 17.625 C 16.351562 17.800781 16.871094 17.609375 17.214844 17.210938 L 18.582031 15.628906 C 19.105469 15.027344 20 14.914062 20.65625 15.371094 L 23.027344 17.015625 C 23.371094 17.253906 23.605469 17.617188 23.671875 18.027344 C 23.742188 18.441406 23.644531 18.863281 23.394531 19.199219 L 22.90625 19.859375 C 20.695312 22.804688 15.820312 23.113281 9.375 16.667969 Z M 9.375 16.667969 "/>
</g>
</svg>
